<svg baseProfile="tiny" xmlns="http://www.w3.org/2000/svg" width="842" height="252" viewBox="12 -5.77 842 252" overflow="visible"><path fill="none" stroke="#234D5B" stroke-width="5.455" stroke-linecap="round" stroke-miterlimit="10" d="M22.854 176.964h820.933"/><path fill="none" d="M0 65.545h311.479v102.858H0z"/><text transform="translate(17.105 160.86)" fill="#224D5B" font-family="'Swagger'" font-size="130.913">s</text><text transform="translate(72.087 160.86)" fill="#224D5B" font-family="'Swagger'" font-size="130.913">m</text><text transform="translate(147.1 160.86)" fill="#224D5B" font-family="'Swagger'" font-size="130.913">o</text><text transform="translate(198.416 160.86)" fill="#224D5B" font-family="'Swagger'" font-size="130.913">h</text><text transform="translate(253.398 160.86)" fill="#224D5B" font-family="'Swagger'" font-size="130.913">r</text><circle fill="#FFF" stroke="#328193" stroke-width="16.364" stroke-miterlimit="10" cx="431.349" cy="119.961" r="111.781"/><path fill="none" d="M551.15 65.545h305.854v101.498H551.15z"/><text transform="translate(565.05 160.86)" fill="#224D5B" font-family="'Swagger'" font-size="130.913">a</text><text transform="translate(620.032 160.86)" fill="#224D5B" font-family="'Swagger'" font-size="130.913">c</text><text transform="translate(675.67 160.86)" fill="#224D5B" font-family="'Swagger'" font-size="130.913">t</text><text transform="translate(717.563 160.86)" fill="#224D5B" font-family="'Swagger'" font-size="130.913">i</text><text transform="translate(737.852 160.86)" fill="#224D5B" font-family="'Swagger'" font-size="130.913">v</text><text transform="translate(789.038 160.86)" fill="#224D5B" font-family="'Swagger'" font-size="130.913">e</text><path fill="#224D5B" d="M452.299 51.282c0 10.924-8.85 19.778-19.775 19.778s-19.776-8.854-19.776-19.778c0-10.926 8.851-19.779 19.776-19.779s19.775 8.853 19.775 19.779z"/><path fill="none" stroke="#234D5B" stroke-width="19.091" stroke-linecap="round" stroke-miterlimit="10" d="M434.344 92.415v71.866m-1.603-72.089l-43.366 17.227m118.527 27.12l-121.615 48.309"/></svg>