<svg baseProfile="tiny" xmlns="http://www.w3.org/2000/svg" width="500" height="500" viewBox="-10.973 -10.358 500 500" overflow="visible"><path fill="#FFF" stroke="#328193" stroke-width="32.653" stroke-miterlimit="10" d="M462.427 239.373c0 123.183-99.873 223.046-223.056 223.046S16.327 362.556 16.327 239.373c0-123.185 99.861-223.046 223.044-223.046s223.056 99.861 223.056 223.046z"/><path fill="#224D5B" d="M281.18 102.33c0 21.798-17.659 39.466-39.46 39.466-21.8 0-39.46-17.668-39.46-39.466 0-21.802 17.66-39.467 39.46-39.467 21.801 0 39.46 17.665 39.46 39.467z"/><path fill="none" stroke="#234D5B" stroke-width="38.096" stroke-linecap="round" stroke-miterlimit="10" d="M245.353 184.406V327.81m-3.2-143.848l-86.534 34.376m236.514 54.115l-242.675 96.396"/></svg>